<?xml version="1.0" encoding="UTF-8"?>
<svg xmlns="http://www.w3.org/2000/svg" width="2400" height="2400" viewBox="0 0 670 680">
<g><path fill="#241F1C" d="M147 397C152.851 400.504 157.438 408.708 161.804 413.995C166.887 420.151 173.711 425.991 179.594 431.458C182.314 433.985 185.967 435.028 188.83 437.375C195.77 443.064 202.041 449.341 210.089 453.563C222.77 460.216 239.837 465.093 254 467C247.657 475.026 244.361 483.893 243 494C223.479 494 205.96 501.281 189.715 511.668C182.869 516.045 176.073 520.069 173 528C180.731 530.103 190.54 524.062 198 521.774C205.526 519.466 213.34 520.422 221 519C218.803 522.989 215.653 525.205 215 530C224.095 529.994 232.151 527.026 241 525.375C249.295 523.828 259.539 524.104 268 524.004C280.11 523.86 291.961 525.574 304 525.871C308.712 525.988 313.235 524.657 318 525.174C324.723 525.902 330.144 529.839 337 530C336.99 516.845 327.513 510.955 316.17 506.599C306.611 502.928 299.475 500.001 289 500C290.54 492.791 292.403 485.115 294.494 478.005C295.322 475.189 296.646 472.399 300.029 472.631C303.555 472.873 305.655 475.728 308.09 477.876C312.776 482.009 317.224 484.696 321.366 489.561C328.391 497.813 337.051 504.899 344.551 512.754C350.299 518.773 354.999 526.013 361.004 531.699C368.467 538.766 376.639 543.97 384.871 549.94C393.662 556.315 402.074 563.599 411.09 569.753C417.429 574.081 424.743 577.075 430.961 581.648C436.326 585.594 440.471 591.103 445.91 595.096C452.316 599.797 459.48 603.473 466 608.046C485.459 621.694 504.697 635.69 524.17 649.341C530.726 653.937 539.691 656.881 547 660.171C550.595 661.789 554.029 664.672 558 665.269C561.997 665.87 566.088 663.859 570 663.3C577.42 662.24 584.562 661.989 592 660.615C599.128 659.298 609.112 660.868 614 655C615.608 656.138 616.919 657.403 619.025 657.404C621.837 657.406 624.433 655.184 627 654.255C633.582 651.874 645.233 653.171 647 645C633.949 635.666 623.223 624.224 612 613C600.815 601.814 589.625 591.231 579.35 579.17C574.716 573.73 570.49 567.986 566 562.414C563.302 559.065 560.206 556.164 559 552C562.015 551.859 568.117 551.592 566.454 546.945C563.867 539.721 554.403 534.013 549.039 528.925C535.047 515.653 523.123 497.671 507 487C512.503 485.008 521.361 483.291 525.276 478.772C533.691 469.061 520.979 454.748 512 451.42C504.974 448.815 497.377 448.988 490 449C487.064 449.005 483.035 449.963 480.228 449.111C477.588 448.31 477.209 445.314 475.441 443.549C473.007 441.12 469.256 440.399 466 440C465.906 437.175 465.743 434.969 463.682 432.819C460.829 429.842 452.915 427.573 456.461 422.34C459.862 417.323 469.602 415.794 474.91 413.5C479.45 411.538 482.042 407.025 486.259 405.078C489.537 403.565 493.511 405.526 496.996 404.485C501.31 403.197 504.208 399.049 507.845 396.583C512.51 393.422 524.087 388.355 522.627 381.13C521.587 375.983 515.306 372.622 511.282 370.174C504.522 366.062 498.026 361.878 491.576 357.261C487.953 354.668 484.186 352.994 482 349C475.875 347.189 469.15 341.874 463.83 338.189C449.442 328.222 436.629 316.436 422.83 305.799C416.688 301.063 410.132 296.483 403.91 291.799C400.429 289.177 396.76 287.785 394.264 283.982C391.655 280.006 392.202 275.198 390.095 271C385.628 262.099 379.789 253.862 375.408 244.911C368.345 230.477 362.729 215.814 354.326 202.039C346.02 188.423 336.441 173.042 325.639 161.272C308.224 142.296 287.681 126.589 270.004 107.83C259.531 96.7161 253.212 83.2679 243.62 71.5903C234.849 60.9135 222.073 52.0444 210.83 44.1844C202.132 38.1036 191.231 35.9866 181 34.7137C167.314 33.0109 154.408 32.4376 141 36.821C136.467 38.303 133.224 41.4537 128.975 43.2809C121.792 46.3702 114.911 49.6784 109.035 55.125C103.455 60.2982 96.4634 66.9937 92.2099 73.2593C90.1742 76.2579 89.8363 79.7293 88.4437 82.9606C86.7368 86.9211 82.948 92.4543 80.2353 95.8527C77.7942 98.9109 74.3887 98.9734 71.0147 100.343C68.0706 101.537 65.5154 103.678 63.0841 105.685C54.3107 112.929 52.752 123.068 48.7909 133C47.0779 137.295 44.4441 141.158 44.4784 145.985C44.5249 152.537 50.2422 151.309 54.8302 152.459C57.9955 153.252 60.6766 154.624 64.0008 154.914C72.6551 155.668 81.4231 156.516 90 157.92C93.0679 158.422 96.9801 158.434 99.7145 160.024C102.858 161.852 104.946 165.323 107.425 167.892C109.306 169.841 113.719 171.638 114.554 174.274C115.417 176.999 112.599 180.489 111.785 183C109.696 189.446 107.51 196.363 106.12 203C101.056 227.171 95.7698 254.199 98.1698 279C100.375 301.791 105.982 326.849 117.615 346.961C120.648 352.204 124.708 356.87 127.741 362.089C129.77 365.583 130.848 369.495 133.09 372.911C138.088 380.525 144.509 388.054 147 397z"/>
<path fill="#F9F8F6" d="M121 170C138.844 137.987 169.361 108.579 205 97.6227C219.604 93.133 234.843 92 250 92C247.227 77.6607 232.07 64.8495 221 56.6296C209.164 47.8409 194.865 39.4422 180 37.3002C148.89 32.817 117.869 47.6354 99.9383 73C97.715 76.145 96.9159 79.6978 95.0802 83C93.3345 86.1405 90.6834 88.6093 89.3441 92C81.3426 112.257 90.8858 135.998 102.258 153C107.333 160.588 111.491 167.926 121 170z"/>
<path fill="#241F1C" d="M135 60.858C125.015 64.9017 119.874 79.4319 125.013 88.9854C129.525 97.3734 143.797 103.779 153 100.258C155.674 99.2343 157.832 97.163 159.62 94.9846C172.227 79.6278 153.917 53.197 135 60.858z"/>
<path fill="#F9F8F6" d="M136.019 67.0425C127.616 71.1962 127.554 84.3287 132.649 90.8951C136.763 96.1978 146.791 97.8862 152.895 95.142C169.001 87.9017 149.03 60.6115 136.019 67.0425z"/>
<path fill="#241F1C" d="M140.005 72.7577C126.602 77.5697 138.129 97.9423 149.957 93.3958C162.916 88.4141 151.249 68.7207 140.005 72.7577z"/>
<path fill="#F9F8F6" d="M211 100C212.935 107.119 220.347 113.046 219.577 121C219.1 125.926 215.496 130.779 213.14 135C207.622 144.884 199.954 155.686 198 167C205.896 166.209 213.059 161.993 220 158.425C224.898 155.907 230.206 154.242 235 151.56C243.386 146.869 250.715 140.033 257.166 132.985C260.944 128.858 269.909 121.205 269.454 115C269.131 110.585 264.016 107.229 261.015 104.576C258.462 102.32 256.149 99.313 252.91 98.0324C249.23 96.5772 244.872 97 241 97C231.231 97 220.518 97.7329 211 100M51 146C58.7837 145.643 66.172 141.917 72 136.815C76.0478 133.271 79.2432 128.539 84 126L81 104C61.4205 104.417 51.3639 128.918 51 146M125 175C133.947 175 143.074 175.525 152 174.911C158.371 174.472 164.638 172.778 171 172.17C177.154 171.582 184.7 173.59 189.96 169.566C197.127 164.084 198.794 153.41 203.427 146C209.505 136.282 223.224 115.671 209.786 105.603C202.249 99.9569 187.764 108.22 181 112.036C163.2 122.079 149.512 135.812 137.373 152C132.302 158.763 125.893 166.327 125 175M126 182C136.087 187.482 147.153 185.514 158 185.039C165.474 184.712 172.604 185.062 180 183.55C187.572 182.002 194.567 178.725 202 176.756C217.795 172.572 233.9 168.374 248 159.673C257.941 153.539 268.149 143.876 275.699 135C278.544 131.656 283.199 125.812 278.569 121.898C274.054 118.082 270.706 123.886 268.192 127.001C261.581 135.192 253.858 144.933 244.985 150.76C210.078 173.684 167.23 182 126 182M60 151C71.7408 151.504 83.1421 153 95 153C93.2553 144.856 87.46 138.19 86 130C78.9902 132.009 74.1296 140.155 68.2855 144.521C65.23 146.804 61.956 147.633 60 151M116 188C111.442 201.695 108.807 214.705 107 229C118.046 231.28 127.426 235.843 136 243.289C140.521 247.216 144.907 254.324 150.285 256.917C153.695 258.561 157.156 255.414 160 253.9C164.339 251.591 169.086 250.511 174 251.21C180.72 252.165 187.616 255.596 193 259.609C197.439 262.917 200.742 266.963 206 269C207.533 258.764 212.962 249.413 220 242C225.55 236.154 229.696 232.221 237 228.745C245.788 224.562 255.233 221.148 265 220.171C295.602 217.109 322.784 237.539 347 253.104C351.716 256.135 355.317 260.53 360 263.637C363.33 265.846 367.505 266.557 370.675 268.854C374.966 271.964 376.392 275.865 382 277C381.746 265.057 374.835 255.698 370.608 245C358.496 214.347 340.382 185.126 318.869 160C311.836 151.786 304.475 144.402 296.004 137.661C293.655 135.792 290.152 131.59 286.91 131.632C280.673 131.712 275.463 141.934 271.826 146C262.312 156.638 249.448 164.379 237 171.135C231.953 173.874 226.301 175.333 221 177.518C188.427 190.948 150.68 194.725 116 188M119 182L124 182C121.843 180.109 120.782 179.6 119 182z"/>
<path fill="#241F1C" d="M167.995 197.548C162.227 197.817 156.465 200.837 151.001 202.49C148.846 203.142 146.178 204.008 145.137 206.225C144.011 208.62 145.618 211.021 146.854 213C149.728 217.6 154.831 225.211 161 225.211C169.363 225.211 172.648 213.463 173.572 207C174.234 202.362 173.935 197.271 167.995 197.548z"/>
<path fill="#F9F8F6" d="M151 208C152.544 212.417 159.611 224.103 165.012 216.682C167.607 213.116 166.997 207.159 167 203C161.48 204.139 156.009 205.371 151 208M262 224C263.665 233.334 270.76 241.064 275.55 249C284.383 263.634 292.439 278.827 302 293C308.503 290.843 313.826 285.775 319 281.41C325.28 276.11 331.086 270.042 335.402 263C336.939 260.493 338.963 257.071 338.552 254.001C337.689 247.551 327.781 243.831 323 240.667C311.058 232.764 296.287 226.341 282 224.3C275.493 223.37 268.564 224 262 224M255 226C255.894 234.075 262.446 241.196 266.55 248C272.994 258.683 278.128 270.08 284.143 281C287.387 286.89 290.064 295.006 297 297C296.313 290.291 292.39 284.809 289.231 279C282.602 266.81 275.54 254.828 268.297 243C264.741 237.193 261.216 229.176 255 226M240 230C243.78 239.031 249.374 247.453 254.14 256C260.211 266.889 265.844 278.031 271.77 289C274.489 294.032 279.121 307.796 286.679 301.712C291.746 297.634 283.454 286.292 281.258 282C271.702 263.324 261.001 245.826 250 228L240 230M269 309C279.32 306.464 271.484 295.034 268.139 289C260.436 275.103 253.38 260.844 245.576 247C243.819 243.884 240.391 234.207 236.059 234.207C232.224 234.207 234.275 239.337 235.254 241C239.117 247.561 244.128 253.402 247.988 260C251.768 266.461 254.28 273.051 256.914 280C260.64 289.83 264.967 299.312 269 309M161 306C154.265 306.768 151.348 313.164 146 316.821C144.774 317.66 140.342 320.64 139.616 317.627C139.156 315.72 141.119 313.582 141.884 312C143.126 309.434 143.621 306.796 144 304C138.072 305.534 133.048 306.122 127 305C129.565 299.612 134.92 296.806 138.362 291.999C142.24 286.583 142.863 280.195 144.721 274C145.978 269.81 148.663 265.401 146.895 261C142.392 249.791 128.981 240.571 118 236.699C114.711 235.539 106.83 232.974 104.757 237.318C103.635 239.67 104.665 242.535 104.66 245C104.655 248.276 104.115 251.746 103.715 255C100.629 280.129 105.281 306.832 115.128 330C118.2 337.227 122.046 351.051 129.185 355.288C134.107 358.209 139.967 350.153 142.711 347C152.851 335.345 159.773 321.52 161 306M265 311C258.737 292.181 251.927 271.696 241.142 255C238.586 251.044 236.099 246.453 232.699 243.153C231.216 241.713 228.605 239.757 226.658 241.662C223.361 244.889 231.12 255.782 232.756 259C239.412 272.092 246.675 284.855 253.247 298C256.126 303.759 257.801 310.444 265 311M220 248C221.007 254.719 224.456 260.938 227.41 267C232.535 277.513 238.292 287.707 243.836 298C246.572 303.08 249.257 312.038 255 314C254.238 308.367 251.877 304.099 249.566 299C244.126 287.001 237.338 275.637 231.167 264C228.329 258.647 226.196 249.95 220 248M215 255C203.077 276.181 206.997 300.951 207 324C220.037 323.729 234.641 319.02 247 315C242.729 299.071 232.496 285.399 224.912 271C221.79 265.072 221.551 258.229 215 255M344 256C335.399 266.679 327.626 277.786 317 286.675C297.475 303.009 272.839 311.305 249 318.66C238.492 321.902 227.321 323.136 217 326.845C211.987 328.646 207.932 329.14 207 335C219.028 331.718 230.916 327.87 243 324.759C250.33 322.872 257.811 321.868 265 319.302C285.156 312.105 303.316 302.146 320 288.8C327.923 282.462 335.195 276.362 341.087 268C343.673 264.331 346.819 260.122 344 256M138 301C140.626 300.077 143.356 297.177 146.042 296.906C152.707 296.232 148.509 307.004 148 310C150.281 307.652 151.384 303.741 154.225 302.028C156.88 300.426 160.196 301.304 162.791 299.397C166.228 296.87 167.517 292.272 171.174 289.913C174.124 288.01 177.307 288.974 178.968 292.059C182.487 298.594 173.701 313.914 183 317C182.778 312.713 180.747 309.168 180.228 305C179.258 297.224 184.426 289.529 192 288C190.447 294.524 191.719 300.446 192 307C194.205 306.906 195.894 306.644 198 306C194.487 300.104 190.646 292.869 194.938 286.174C197.152 282.722 204.852 280.99 203.338 275.996C202.092 271.886 197.248 269.993 194 267.784C185.461 261.974 179.446 258.979 169 259C165.474 259.007 161.971 258.844 159.144 261.318C154.281 265.573 154.896 273.402 152.489 279C148.948 287.236 142.684 293.504 138 301M348.184 264.068C343.744 266.336 340.249 273.139 337.255 276.999C333.26 282.149 328.045 286.125 323 290.197C299.855 308.877 273.988 321.901 245 328.764C235.22 331.079 225.448 333.52 216 336.911C212.872 338.034 208.417 338.517 207.318 342.214C206.874 343.706 206.978 345.463 207.016 347.001C207.419 363.349 232.963 356.149 243 353.985C267.728 348.654 290.038 339.663 313 329.312C325.519 323.668 338.782 319.454 350 311.243C361.365 302.924 371.52 294.891 372.682 280.005C373.057 275.202 369.552 274.978 366.285 272.995C361.519 270.104 354.801 260.688 348.184 264.068z"/>
<path fill="#241F1C" d="M0.333333 279.667C0.277691 279.722 0.222312 280.778 0.666667 280.333C0.722309 280.278 0.777688 279.222 0.333333 279.667z"/>
<path fill="#F9F8F6" d="m 378,281 c 1.42,4.838 5.353,6.666 8.699,10.174 4.707,4.934 6.075,9.236 5.301,15.826 6.273,2.082 13.181,7.958 13.848,15 0.31,3.27 -1.827,6.784 -0.12,9.83 2.715,4.843 7.641,7.699 9.786,13.17 1.742,4.443 -0.77,9.645 1.515,13.714 2.795,4.98 9.252,7.535 11.008,13.286 1.236,4.046 -2.933,6.997 -2.159,10.791 0.892,4.369 7.914,6.966 9.928,11.209 1.911,4.025 -0.441,8.82 -0.806,13 4.978,0 10.258,-0.47 15,1.34 3.924,1.498 7.569,5.292 11.961,5.298 3.047,0.005 4.637,-2.495 7.129,-3.769 3.386,-1.732 7.257,-0.853 10.273,-3.637 1.93,-1.783 2.66,-5.056 5.027,-6.33 3.486,-1.875 8.418,2.134 12.555,0.495 3.774,-1.496 4.073,-5.47 6.564,-8.159 3.902,-4.212 12.893,-0.993 13.114,-9.239 0.11,-4.056 -3.737,-6.897 -6.624,-9.099 -7.995,-6.098 -16.799,-11.33 -24.999,-17.19 -11.925,-8.522 -24.316,-16.426 -36,-25.263 -5.032,-3.806 -8.849,-8.987 -14,-12.658 -6.417,-4.572 -13.582,-7.564 -20,-12.383 C 403.506,297.775 391.928,285.61 378,281 m -180,18 3,0 c 0.51,-4.037 0.989,-7.92 1,-12 -5.237,1.738 -4,7.31 -4,12 m 13,65 c 0.79,5.841 3.653,17.825 9.133,20.972 3.475,1.995 9.012,1.028 12.867,1.028 10.394,0 20.664,-0.732 31,-0.985 18.449,-0.452 35.78,-0.981 54,-4.476 10.244,-1.964 19.922,-6.195 30,-8.639 4.955,-1.202 10.043,-0.774 15,-2.055 9.623,-2.488 19.543,-4.745 29,-7.745 6.966,-2.211 13.809,-5.822 21,-7.1 -10e-4,-6.459 -0.036,-12.653 -5.329,-17.277 -2.155,-1.883 -6.361,-2.486 -7.769,-5.036 -1.527,-2.765 1.237,-8.405 1.053,-11.687 -0.543,-9.724 -9.463,-10.196 -16.955,-12 2.722,-4.329 6.923,-17.105 -2.99,-16.573 -5.211,0.279 -9.408,7.261 -13.01,10.364 -9.085,7.828 -19.369,15.152 -30,20.723 -17.889,9.375 -36.219,17.507 -55,24.754 -6.033,2.328 -11.773,5.437 -18,7.292 -8.354,2.489 -17.418,3.289 -26,4.726 -9.584,1.604 -18.186,3.714 -28,3.714 m -38,-71 c -7.575,8.916 -7.239,18.545 -11.093,29 -3.312,8.983 -9.524,17.278 -15.047,25 -2.609,3.648 -4.977,7.527 -8.025,10.83 -1.964,2.129 0.79185,-3.69121 1.02085,-0.47521 0.28,3.942 -7.21436,3.574 -5.29136,6.853 5.219,8.897 11.49345,22.08088 17.66445,30.37688 9.281,12.479 21.49995,24.99596 33.79095,34.14296 7.862,5.85 29.20417,21.35745 38.08817,25.93945 10.579,5.457 33.74886,-35.48479 34.50866,-24.39463 5.58477,-1.40265 -29.22768,26.94044 -21.84768,27.99544 9.203,1.315 49.92496,7.72611 59.23096,7.73211 -3.996,-7.893 -13.481,-14.271 -20,-20.17 -11.804,-10.68 -25.239,-19.436 -36.83,-30.269 -4.437,-4.146 -7.94,-9.217 -12.185,-13.561 -3.714,-3.802 -9.141,-6.977 -12.247,-11.209 -4.075,-5.554 -5.29,-14.253 -6.987,-20.791 C 202.609,350.193 202,329.473 202,309 c -3.514,1.486 -6.172,2.23 -10,2 -1.549,10.012 -11.702,11.906 -16.721,2.996 C 171.517,307.319 175.844,299.778 173,293 m 13,5 c -1.676,5.669 -1.891,11.901 5,13 l -5,-13 m 39,94 c 14.103,17.49 31.951,31.902 49,46.427 10.35,8.818 19.598,18.748 32,24.753 15.834,7.666 32.545,12.447 50,14.534 8.246,0.987 16.7,0.625 25,1.455 20.205,2.02 39.647,4.831 60,4.831 19.439,0 38.714,-1.909 58,-4.285 6.044,-0.744 16.746,-1.553 19.933,-7.823 3.864,-7.602 -6.786,-14.926 -12.933,-16.197 -8.549,-1.767 -19.254,1.887 -28,2.266 -2.262,0.098 -8.731,0.918 -9.373,-2.279 -0.461,-2.291 2.458,-5.653 3.373,-7.682 -4.853,-1.435 -9.964,-1 -15,-1 0.29,-3.545 3.254,-10.345 -0.333,-12.821 -2.946,-2.034 -8.767,0.167 -10.645,-3.497 -2.067,-4.035 4.613,-9.295 4.616,-13.623 0.002,-2.887 -2.113,-3.797 -4.657,-3.997 -6.167,-0.484 -11.73,1.098 -17.981,-0.062 1.37,-5.783 5.686,-14.214 1.397,-19.772 -2.383,-3.086 -10.075,-2.418 -10.77,-6.376 -0.432,-2.455 2.111,-4.793 3.061,-6.852 2.563,-5.561 1.349,-12.415 -4.703,-14.852 -6.343,-2.553 -13.679,0.77 -19.985,2.051 -14.495,2.946 -28.632,5.729 -43,9.423 -25.099,6.452 -51.108,12.703 -77,15.208 -17.028,1.648 -34.889,0.17 -52,0.17 z"/>
<path fill="#241F1C" d="M0 452L1 453L0 452M0 454L1 455L0 454z"/>
<path fill="#F9F8F6" d="M183 523C189.85 522.686 195.437 519.194 202 517.679C210.687 515.674 220.596 516.033 229 513.301C234.951 511.367 239.906 507.036 246 505.301C252.662 503.404 265.452 504.872 268 497L260 497C261.437 485.686 263.746 477.584 270 468C266.973 468 263.135 467.41 260.285 468.603C253.709 471.358 249.743 480.649 247.836 487C246.958 489.922 247.897 495.104 245.397 497.227C242.007 500.105 232.394 497.672 228 498.465C216.192 500.594 203.835 506.411 194 513.119C189.7 516.052 185.343 518.205 183 523M272 493C274.073 484.249 277.845 476.889 282 469C273.904 469.029 270.163 472.195 267.619 480C265.706 485.867 264.459 492.132 272 493M284 469C283.864 473.046 281.602 475.416 279.918 479C277.836 483.432 276.361 489.106 276.125 494C275.954 497.544 276.557 500.618 272.927 502.57C261.852 508.526 248.493 507.184 237 512.018C231.476 514.342 225.705 518.049 224 524C243.329 521.557 262.433 519.183 282 520.039C288.02 520.303 293.98 521.697 300 521.961C306.306 522.237 312.713 521.52 319 522.104C323.451 522.518 327.457 523.959 332 524C326.342 513.101 311.492 507.87 300 505.515C295.826 504.659 287.628 506.718 284.89 502.682C283.034 499.947 284.476 495.826 285.348 493C287.707 485.351 289.526 477.606 292 470L284 469M308 470C311.46 475.418 316.421 478.674 320.961 483.089C325.15 487.164 328.918 491.766 332.961 496C346.19 509.858 359.149 525.356 374 537.536C387.173 548.338 402.214 555.785 416 565.44C429.189 574.677 440.876 585.972 454 595.215C459.028 598.756 464.833 601.09 470 604.44C475.295 607.873 479.798 612.383 485 615.975C492.12 620.891 499.881 624.845 507 629.684C512.222 633.233 516.541 637.867 522 641.135C533.103 647.781 546.016 657.926 559 660.353C567.407 661.925 578.543 658.31 587 657.286C594.691 656.353 608.227 657.007 609 647C612.007 648.263 614.808 650.68 618 651.397C621.696 652.227 626.407 650.755 630 649.869C632.983 649.133 638.113 648.165 636.994 643.956C636.172 640.865 633.179 638.193 630.985 636.039C625.352 630.508 618.643 626.24 612.911 620.816C596.445 605.235 581.198 587.336 566.59 570C560.879 563.221 552.57 556.654 550 548C553.577 548.45 556.49 548.965 560 548C551.133 533.824 537.339 522.339 526.17 510C519.795 502.958 510.964 491.487 502 487.858C496.567 485.659 488.773 487 483 487C466.301 487 449.594 490.282 433 489.871C418.184 489.504 403.684 485.596 389 484.17C375.242 482.833 360.532 484.06 347 481.335C333.637 478.644 321.251 473.031 308 470z"/>
<path fill="#241F1C" d="M0 511L1 512L0 511M0 513L1 514L0 513z"/>
<path fill="#C83737" d="m 214.5029,255.15814 c -11.3593,20.92775 -8.5755,45.76033 -7.77214,68.62435 2.54049,2.07862 7.11584,-0.235 10.44549,-0.31491 9.96491,-2.32185 20.59142,-3.84173 29.63968,-8.73529 0.53606,-4.75411 -3.41087,-9.23552 -4.95195,-13.66765 -7.08571,-14.16028 -15.23912,-27.7742 -22.08305,-42.04555 -1.19467,-1.47836 -3.26129,-5.3281 -5.27803,-3.86095 z"/>
<path fill="#AC9393" d="m 228.32861,240.39274 c -4.72962,1.28055 -2.16662,7.79541 -0.46084,10.64203 10.0565,18.53795 19.61421,37.38183 29.63318,55.91533 1.58114,1.97279 4.81006,5.44531 7.33329,3.78724 -2.05697,-10.29902 -6.78314,-20.13221 -10.37347,-30.05173 -5.85301,-13.69938 -12.34548,-27.68201 -22.6749,-38.61616 -0.97151,-0.81511 -2.11201,-1.73428 -3.45726,-1.67671 z"/>
<path fill="#C83737" d="m 245.33017,228.44139 c -2.32589,0.22222 -6.90287,1.09407 -4.50583,4.27636 10.35994,19.9613 21.93584,39.29183 31.92609,59.46193 2.80601,4.17413 5.13282,11.06778 10.89608,11.59791 4.36443,-1.47886 6.83398,-6.86387 3.74139,-10.77618 -11.17765,-22.26248 -23.71323,-43.84175 -36.88356,-64.98045 -1.58178,-1.01956 -3.47693,0.36365 -5.17417,0.42043 z"/>
<path fill="#6C5353" d="m 261.46407,223.1818 c 1.15366,8.44215 7.17149,15.65677 11.48196,22.88015 10.08688,15.56528 18.50912,32.43222 29.15293,47.47135 10.21413,-4.53179 18.36797,-12.88811 26.33118,-20.58466 4.52136,-5.8776 11.05407,-12.42773 10.17414,-20.44375 -4.11609,-7.06889 -12.66066,-10.01861 -19.14377,-14.49595 -15.82531,-9.92031 -34.29615,-15.35173 -53.00997,-14.99894 -1.63307,0.13541 -3.4799,-0.60036 -4.98647,0.1718 z"/>
<path fill="#C83737" d="m 202.49179,103.24663 c -12.42453,1.79148 -23.19268,9.3047 -33.43697,16.09705 -16.32171,13.02749 -31.0306,28.6225 -41.55752,46.73672 -1.08144,2.56101 -4.80128,8.34847 -0.10553,9.24784 16.14235,1.69082 32.20301,-1.4015 48.17725,-2.6164 6.54524,0.24186 14.28293,-0.29528 18.07358,-6.52592 5.82142,-8.70647 8.87553,-18.87672 14.74083,-27.59384 4.86832,-8.89173 11.19691,-20.67656 4.46843,-30.30025 -2.2138,-3.47513 -6.26532,-5.40905 -10.36007,-5.0452 z"/>
<path fill="#AC9393" d="m 275.53655,120.34367 c -5.94558,1.56886 -8.45713,8.43374 -12.58787,12.42873 -14.99018,19.50404 -38.26234,29.71511 -60.88739,37.52088 -23.23415,7.86824 -47.76382,10.17936 -72.10728,11.13403 -2.63084,-0.38194 -2.37494,2.86567 0.0709,2.82382 11.37443,3.5392 23.55584,1.12948 35.2451,1.17906 19.01359,-0.32822 36.4554,-8.78457 54.63707,-13.21248 20.05302,-5.56144 38.27513,-16.91498 51.99304,-32.57634 3.62291,-4.62519 10.12107,-9.60127 8.6414,-16.14529 -0.87775,-1.81394 -2.98346,-3.15172 -5.00498,-3.15241 z"/>
<path fill="#C83737" d="m 127.14462,181.00776 c -0.53948,0.0405 -1.12944,-0.11474 -1.62096,0.17004 -0.49617,0.32982 -0.58568,1.09064 -0.16515,1.51732 0.518,0.42308 1.16847,0.64721 1.7576,0.95599 0.41901,0.20895 0.91848,0.48643 1.38072,0.23674 0.47989,-0.20182 0.64217,-0.76356 0.57774,-1.24328 0.0105,-0.26788 0.19977,-0.51779 0.11289,-0.79487 -0.067,-0.56712 -0.66396,-0.91757 -1.20545,-0.84246 -0.27913,1.7e-4 -0.55826,3.5e-4 -0.83739,5.2e-4 z"/>
<path fill="#C83737" d="m 121.17823,179.4136 c -1.06937,0.01 -1.92393,0.76611 -2.58217,1.53174 -0.3298,0.33919 -0.63368,0.81614 -0.45125,1.30348 0.13595,0.49236 0.6681,0.75167 1.1544,0.70671 1.5651,0.0143 7.30175,0.85684 8.86556,0.83325 0.66433,-0.0218 -1.07064,-1.83116 -1.37086,-2.42367 -0.2435,-0.45178 0.343,0.15276 -0.0379,-0.17575 -0.73702,-0.56575 -4.6099,-1.797 -5.57778,-1.77576 z"/>
<path fill="#AC9D93" d="m 283.93294,468.6588 c -2.40628,7.21735 -7.24382,13.60735 -7.85629,21.431 -0.86901,3.60715 -0.0138,8.02031 -2.30608,11.08859 -9.94233,5.91585 -22.12131,5.42059 -32.92941,8.92583 -7.09322,1.97953 -14.176,6.26794 -17.41935,13.12107 0.52622,3.09983 5.39555,0.18447 7.68563,0.57731 19.07532,-2.49284 38.43012,-3.53294 57.62409,-2.3865 13.4479,2.03136 27.18776,0.37404 40.52228,2.9723 2.31652,0.58832 3.1646,-2.28334 1.38933,-3.56868 -8.34408,-9.98187 -21.50333,-14.81643 -34.12331,-16.31546 -3.69302,-0.7238 -8.95414,1.0933 -11.26981,-2.6768 -1.01045,-5.64225 1.90717,-11.16036 2.97263,-16.61281 1.2065,-5.06945 3.38493,-10.07121 3.61989,-15.29207 -1.72382,-1.6823 -4.85031,-0.70747 -7.09827,-1.51725 l -0.57883,0.18083 -0.2325,0.0726 z"/>
<path fill="#6C5353" d="m 264.70379,467.42699 c -7.32966,-0.55776 -11.71741,6.51225 -14.60634,12.19248 -2.74105,4.82859 -3.09363,10.39972 -4.29236,15.67114 -1.60889,3.55294 -6.37016,1.76338 -9.50265,2.48729 -7.28875,-0.23084 -14.58329,0.72477 -21.26657,3.7826 -10.47076,4.30107 -20.71226,9.72551 -29.40198,17.0254 -1.15493,1.2832 -4.90096,4.36054 -1.43908,4.71401 8.28051,-0.7206 15.76079,-5.28698 24.05806,-5.98253 10.45814,-1.0419 21.2726,-2.33859 30.42533,-8.01453 8.29153,-5.80485 19.74254,-2.89939 27.88514,-8.89315 1.92983,-1.42043 2.75431,-4.97924 -0.86818,-3.97257 -3.86806,0.7474 -5.84117,-0.29315 -4.32839,-4.17493 1.44225,-8.35273 4.68073,-16.18407 8.738,-23.61288 0.24458,-2.74802 -3.89198,-0.81163 -5.40098,-1.22233 z"/>
<path fill="#AC9D93" d="m 381.3496,291.66768 c -6.05101,1.30791 -9.64202,7.24052 -14.31076,10.83471 -18.40209,16.8596 -41.73041,26.79928 -64.18053,36.94142 -14.18274,5.67292 -27.99163,12.57422 -42.79804,16.54751 -14.08852,2.5318 -28.25796,5.30227 -42.40543,6.82245 -2.30277,0.70616 -8.29383,-1.21264 -7.11668,2.78088 1.75148,7.14887 3.29988,15.71236 9.8456,20.09986 6.87619,2.23451 14.36955,0.66643 21.47393,0.87973 24.13575,-1.13144 48.45127,-0.93722 72.37642,-4.67582 15.08167,-2.58296 29.15436,-9.53828 44.43773,-10.80199 18.68593,-3.43476 36.88286,-9.51412 54.62962,-15.93153 0.43995,-6.4776 -0.10787,-14.98285 -6.64187,-18.62999 -2.65959,-1.7397 -7.52143,-2.9069 -6.34141,-7.14564 1.16025,-5.56119 2.33065,-13.05849 -3.24533,-16.72291 -3.49744,-2.54179 -7.91113,-2.95228 -11.89874,-4.2734 1.66431,-4.68842 5.01634,-11.5948 0.15752,-15.53138 -1.15575,-0.78454 -2.57588,-1.26645 -3.98203,-1.1939 z"/>
<path fill="#454A68" d="m 243.60798,96.336911 c -10.57633,0.340077 -21.4091,0.247023 -31.69997,2.913688 -2.47146,2.091581 0.757,5.343541 1.6219,7.500701 3.33828,5.31788 7.17,11.84767 4.17823,18.19542 -6.14279,13.57466 -16.0795,25.50619 -19.88532,40.09399 -0.65869,3.15717 3.46924,2.33352 5.18304,1.62148 11.14234,-3.92852 21.51135,-9.744 32.18678,-14.75202 12.02688,-6.73161 21.28939,-17.29888 30.46535,-27.35949 2.8388,-3.57119 6.54037,-9.0009 2.87149,-13.29474 -4.72614,-5.56766 -10.19652,-10.93704 -16.82121,-14.139676 -2.59779,-0.892226 -5.3957,-0.759271 -8.10029,-0.779353 z"/>
<path fill="#454A68" d="m 410.88444,363.73288 c -9.50304,1.03366 -18.66095,4.10932 -28.08629,5.71367 -36.41135,7.41883 -72.2525,19.20457 -109.37258,21.87057 -15.88349,0.82893 -31.99121,-0.18204 -47.81193,0.45285 -0.91855,2.30118 2.43859,4.49079 3.74688,6.41075 19.45266,20.36776 41.33998,38.18223 62.57559,56.61437 14.14799,11.17688 31.74877,16.92243 49.08971,20.97144 18.95052,4.20357 38.47974,3.37867 57.63637,5.95685 16.80959,2.12563 33.73665,3.05982 50.67805,2.61504 19.94844,-0.23087 39.83179,-2.58786 59.53767,-5.54094 5.45672,-1.06279 12.4729,-5.12288 11.19637,-11.64527 -2.48466,-8.18472 -11.69966,-12.87041 -19.90072,-12.50873 -9.83954,0.0549 -19.62649,3.98761 -29.44127,2.14382 -3.16055,-1.626 0.5293,-5.28481 0.91082,-7.53769 0.81862,-3.25339 -3.80118,-2.5038 -5.69827,-2.85091 -2.51609,-0.43639 -6.41316,0.25933 -8.01619,-0.82318 0.27452,-3.78882 2.56504,-9.29725 -1.32656,-11.96744 -3.19469,-1.94413 -9.15724,-0.21777 -10.42887,-4.61926 1.0735,-4.75038 5.8907,-9.02297 4.45818,-14.1148 -2.68269,-3.68836 -8.16982,-2.19489 -12.07713,-2.45904 -3.12202,-0.0204 -6.78176,0.53075 -9.65235,-0.13248 1.472,-5.97696 4.82948,-12.96951 1.22352,-18.79092 -2.36208,-3.87179 -8.18209,-2.79486 -10.526,-6.39235 0.11137,-5.31229 5.80584,-9.82114 3.54854,-15.41056 -1.52019,-5.4524 -6.7776,-8.42755 -12.26354,-7.95579 z"/>
<path fill="#454A68" d="m 309.56155,469.94864 c -2.92276,0.87664 0.55346,3.6137 1.59005,4.67904 17.70911,17.17545 33.9675,35.72484 51.30048,53.26662 19.70564,20.15423 46.53528,30.86599 67.64437,49.21372 11.53638,9.47716 23.12746,19.05553 36.37033,26.0899 10.74892,7.07011 20.64572,15.39589 31.8592,21.78098 12.63246,7.86403 23.78277,17.87383 36.84612,25.09508 8.30469,4.39714 16.49492,10.39633 26.1334,11.16364 11.19443,0.27372 21.96776,-3.20797 33.06426,-4.036 5.64147,-0.48548 12.77415,-2.13905 14.87521,-8.15714 0.0401,-1.91604 2.87763,0.71966 4.02773,0.83897 3.26396,1.67422 6.54801,3.76123 10.28842,2.10077 4.63822,-1.31914 10.6425,-1.3215 13.8033,-5.44599 1.37167,-4.24078 -3.17112,-7.52091 -5.64463,-10.32843 -10.15791,-9.18464 -20.99318,-17.64786 -30.2662,-27.78492 -15.7494,-16.39879 -30.17562,-34.1112 -45.36565,-51.06562 -2.02613,-2.62318 -3.90239,-5.41192 -5.10488,-8.51839 2.5869,-0.20082 7.12678,1.97718 8.50536,-1.21167 -0.90579,-4.476 -5.00172,-7.6475 -7.55545,-11.27691 -13.63987,-15.18404 -27.71173,-30.02107 -42.41702,-44.17739 -3.76946,-3.3937 -8.34458,-6.78171 -13.71407,-5.72726 -17.90198,-0.41491 -35.76528,1.21592 -53.57103,2.5116 -21.95385,1.33699 -43.28825,-5.86385 -65.23489,-5.99054 -15.28018,-0.58958 -30.84275,-1.30321 -45.37071,-6.52533 -7.34481,-2.05345 -14.56168,-5.05141 -22.0637,-6.49473 z"/>
<path fill="#454A68" d="m 379.1288,281.16893 c -2.66984,1.13627 0.61513,4.00491 1.63997,5.17007 4.64317,4.88008 10.90831,9.69892 10.5633,17.17774 -0.88153,3.56539 1.85934,4.98094 4.59662,6.16961 5.76587,3.27116 10.83327,9.77133 8.83345,16.73593 -1.61544,5.20731 3.15828,8.93243 5.9365,12.62325 3.21486,3.26821 5.3324,7.58621 4.76075,12.27067 -0.1836,3.48467 -0.0647,7.21869 2.83008,9.65934 3.04309,4.15339 8.58981,7.29775 9.15087,12.78351 -0.94794,4.0596 -3.74874,8.99465 -0.12436,12.60584 3.31194,3.48274 9.2977,6.26061 8.23176,12.05508 0.18848,2.67315 -1.21043,5.46622 -0.62301,8.01146 3.52719,2.09169 8.21722,0.65415 12.12023,1.8027 5.42721,1.31178 10.00202,5.83916 15.71259,5.80013 4.16422,-1.31435 7.53539,-4.81541 11.97099,-5.01486 4.82355,-0.86244 6.87096,-6.22436 10.51889,-8.69605 4.73353,-0.33171 11.00065,3.09211 14.67977,-1.50067 2.38038,-3.05123 3.81817,-7.53096 8.18912,-8.26019 3.89221,-0.65092 9.00639,-2.4092 8.98269,-7.19064 0.41363,-5.66252 -5.82269,-8.50382 -9.41883,-11.71991 -20.47496,-14.96881 -42.44829,-27.9878 -62.00086,-44.14827 -7.01194,-7.10171 -15.35931,-12.56464 -23.91238,-17.60649 -14.41759,-8.71712 -25.8047,-22.15351 -41.56979,-28.62284 -0.3466,-0.0922 -0.70943,-0.15765 -1.06835,-0.10541 z"/>
<path fill="#241F1C" d="m 167.31912,35.973834 c -27.84416,0.470212 -54.99579,15.992766 -69.465395,39.775388 -2.52246,5.613268 -6.013943,10.676276 -9.038353,15.993301 -6.667939,17.071827 -1.297188,36.128027 7.075244,51.588727 5.197454,8.81178 10.110194,18.52425 18.571124,24.67053 2.25583,1.087 5.83283,3.89403 7.72009,0.85279 13.19003,-21.84649 30.34059,-41.70145 51.86025,-55.66184 19.09515,-12.93405 41.98445,-19.636417 64.95266,-20.180115 3.55614,-0.625906 7.88283,0.537481 11.00795,-1.529481 0.85949,-3.240453 -2.16017,-6.304077 -3.28204,-9.193513 C 238.85061,68.57114 225.58056,59.047552 212.74471,50.332673 200.41103,42.062155 186.14916,36.044892 171.09415,35.990257 c -1.25785,-0.03869 -2.51686,-0.03828 -3.77503,-0.01642 z M 141.3565,60.275883 c 12.93559,-0.05519 23.24739,13.12331 21.28414,25.677168 -0.4371,6.223846 -5.2607,11.718705 -10.86712,13.976222 C 141.67935,102.1097 130.95811,96.879897 125.42834,88.40718 120.0788,77.189838 127.95613,60.178333 141.3565,60.275883 Z"/>
<path fill="#B3B3B3" d="m 85.186291,129.84313 c -6.717335,2.49813 -10.796258,9.08826 -16.459347,13.22433 -2.49076,2.7158 -6.654026,3.80348 -8.59955,6.89433 0.66345,2.84126 4.921345,1.53413 7.030115,2.20262 9.132668,0.62312 18.332116,1.17495 27.441414,1.63492 2.285865,-1.89043 -0.857565,-5.11967 -1.30059,-7.28402 -2.699995,-5.34458 -4.652757,-11.08992 -7.128969,-16.41042 -0.280487,-0.20753 -0.638432,-0.29145 -0.983073,-0.26176 z"/>
<path fill="#AC9D93" d="m 80.0826,103.3724 c -11.033754,0.79371 -19.477979,9.54416 -23.848413,19.13795 -3.318235,7.4501 -6.538885,15.82555 -5.274248,24.02371 10.503463,-0.12874 19.579352,-7.04037 26.587614,-14.37553 2.170058,-2.48188 5.33454,-4.21072 7.089165,-6.90386 -1.255503,-7.13986 -1.602241,-14.64824 -3.351925,-21.58498 -0.340581,-0.26677 -0.78643,-0.3071 -1.202193,-0.29729 z"/>
<path fill="#B3B3B3" d="m 142.96258,71.614391 c -6.75864,-0.03058 -12.12384,7.905521 -8.50654,13.988069 2.61414,6.259964 10.301,11.558232 16.91833,7.65376 5.37315,-2.449357 6.21636,-9.545013 2.95396,-14.024786 -2.39112,-3.950407 -6.44865,-7.759609 -11.36575,-7.617043 z"/>
<path fill="#454A68" d="m 310.33544,470.04359 c -1.79961,3.37035 4.30104,6.20494 5.679,9.08146 19.53833,20.61213 38.23159,42.2892 59.99978,60.60304 23.28525,16.29565 47.29,31.53002 69.35524,49.53269 27.1539,18.93231 54.77118,37.23537 82.05032,56.00094 13.50359,8.40945 28.38829,18.92619 45.23044,15.46494 10.26442,-2.25766 21.66902,-1.33012 31.15277,-6.19217 3.46796,-2.07844 6.37053,-7.93341 10.93414,-3.89705 6.91286,3.70804 16.32658,1.21108 21.9171,-3.78751 3.6347,-5.9609 -5.28991,-9.98732 -8.2744,-13.86488 -28.11884,-24.32589 -52.87961,-52.40273 -75.94301,-81.49798 -2.91943,-3.73685 8.67098,0.0934 6.66832,-5.58101 -13.42096,-18.9304 -30.87664,-34.69845 -47.05724,-51.25011 -4.98434,-5.53418 -11.65159,-10.12217 -19.48618,-8.68421 -30.9323,0.55907 -62.13244,4.79852 -92.79502,-1.15837 -25.43682,-3.49514 -51.86567,-1.69777 -76.0886,-11.19041 -4.42096,-1.14048 -8.81086,-3.13178 -13.34266,-3.57937 z"/>
<path fill="#6C5353" d="m 412.70063,363.62766 c -44.48025,6.2415 -87.29456,22.0629 -132.06442,26.30492 -18.58344,1.56476 -37.56371,0.74985 -56.0224,2.29423 5.40905,7.99632 14.19451,14.81074 21.22254,22.07533 19.13422,17.14706 37.83758,35.23097 59.41791,49.28869 34.75215,17.7383 74.80138,15.87495 112.51769,20.29021 31.5219,2.84645 63.43542,0.006 94.39202,-6.18843 7.55701,-1.11921 10.97811,-11.2335 4.5861,-16.09398 -6.35033,-6.84229 -15.95757,-8.33204 -24.74343,-6.37132 -7.00675,0.0292 -14.73183,1.85851 -21.45629,0.0631 -0.23579,-3.26199 2.45569,-9.08443 -3.02975,-9.05612 -6.28153,0.31947 -10.90181,-0.60616 -8.82161,-8.0541 2.01025,-7.75322 -9.20126,-4.0881 -11.85847,-8.83345 -0.30064,-5.18985 6.92438,-10.48782 3.14583,-15.12748 -5.90738,-3.9365 -13.7374,-1.84021 -20.37686,-2.46361 1.85501,-6.75007 5.36391,-17.86359 -3.60539,-21.17516 -3.53268,-0.83049 -8.17434,-4.00917 -4.93195,-7.94513 5.24369,-7.05378 1.22662,-19.20091 -8.37152,-19.00767 z"/>
<path fill="#454A68" d="m 379.48222,281.11582 c -3.71259,2.0891 2.41851,6.24721 3.81859,8.34547 5.12708,4.37526 7.66236,10.56273 8.58235,16.98466 4.04601,4.77984 11.35553,7.13073 12.2517,14.20364 0.49936,6.00477 0.29518,12.60834 5.31097,16.9823 5.25192,5.54064 5.61091,13.15479 6.91231,20.1376 3.28293,6.98036 13.22507,12.11321 9.47777,21.10647 -2.92515,9.03426 11.45331,11.77971 9.03243,21.03304 -2.79295,8.22171 4.42821,8.04055 10.21449,8.54918 7.45861,0.8203 14.12788,8.13793 21.83607,3.79253 7.24766,-2.21763 13.16239,-7.03601 19.09295,-11.36338 5.49512,0.38496 12.60282,1.82639 15.66522,-4.36816 2.61898,-7.27095 13.65094,-4.76607 15.13459,-12.68046 -0.34166,-9.35165 -11.62957,-12.6183 -17.46369,-18.14145 -23.72185,-16.15279 -46.74557,-33.19281 -69.406,-50.7771 -16.81027,-10.14531 -31.06043,-24.14594 -48.42254,-33.3732 -0.65004,-0.23899 -1.33364,-0.4791 -2.03721,-0.43114 z"/>
<path fill="#6C5353" d="m 350.54907,263.22152 c -9.03752,3.00052 -11.91406,13.97186 -19.21376,19.52171 -26.52145,23.80205 -59.25998,40.05869 -94.03554,47.67832 -9.62275,3.358 -20.70477,4.24312 -29.17554,10.14297 -5.06973,8.72318 4.66299,19.78355 14.16337,17.02494 41.89542,-4.71736 80.51968,-23.18512 118.39046,-40.56184 13.87553,-8.22874 30.65962,-19.07328 31.80657,-36.86644 0.15067,-6.94695 -9.07063,-8.161 -12.77558,-12.73197 -2.68523,-1.93259 -5.62533,-4.45066 -9.15998,-4.20769 z"/>
<path fill="#C83737" d="m 167.42026,258.95522 c -5.86832,-1.08128 -10.852,2.78981 -11.98876,8.51128 -2.15999,10.78139 -7.83375,20.00156 -13.9857,28.89762 0.76493,3.84214 9.6444,-1.76226 7.91196,4.94143 -2.71407,7.14838 2.95702,3.18507 6.18034,0.66564 4.67447,-1.01266 9.09041,-3.02459 11.62158,-7.45003 2.09869,-3.78201 7.67703,-7.39645 10.83276,-2.67918 2.06832,2.03079 -0.29465,9.92029 3.45745,5.78439 1.97132,-3.1422 5.33997,-9.54798 9.7489,-8.1177 3.17225,3.32119 3.30305,-3.36185 5.45546,-4.60268 3.50138,-2.47928 9.98858,-7.13569 5.29913,-11.63343 -10.05228,-7.58158 -21.27023,-15.50006 -34.53312,-14.31734 z"/>
<path fill="#AC9393" d="m 180.61259,297.46004 c -0.48504,0.0759 -0.8283,0.45989 -1.29417,0.59924 -0.82462,0.67997 -0.54985,1.89436 -0.79004,2.82517 -0.36661,3.23209 -1.0638,6.4673 -0.86656,9.73421 0.13149,2.38158 1.04615,4.8744 3.0764,6.27174 0.69683,0.42032 1.44513,0.99914 2.29064,0.94357 1.04876,-0.2345 0.90778,-1.48532 0.76692,-2.28946 -0.53059,-3.77218 -2.29383,-7.30848 -2.63399,-11.04536 -0.18653,-1.94518 0.0174,-3.90439 0.53748,-5.78388 0.13664,-0.6594 -0.41332,-1.29699 -1.08668,-1.25523 z"/>
<path fill="#C83737" d="m 185.78258,297.69664 c -1.14862,0.26446 -1.04828,1.66447 -1.31804,2.56112 -0.39487,1.84331 -0.30377,3.75479 -0.21148,5.62475 0.42673,2.74018 2.58542,5.05588 5.26483,5.74117 0.75476,0.28996 1.95656,0.43973 2.24978,-0.54962 0.0819,-0.99679 -0.58019,-1.88574 -0.83758,-2.82694 -1.26708,-3.21232 -2.38893,-6.48618 -3.77169,-9.65057 -0.24244,-0.53238 -0.74456,-1.01073 -1.37582,-0.89991 z"/>
<path fill="#AC9393" d="m 191.11902,289.24967 c -0.77089,0.84788 -0.5847,2.12165 -0.71482,3.18925 -0.19788,4.52081 0.26589,9.02965 0.58081,13.53279 -0.0641,0.79596 0.21002,1.84079 1.16499,1.90346 1.96053,0.0128 3.92801,-0.34223 5.80691,-0.88944 0.83067,-0.2076 1.04782,-1.24529 0.56888,-1.88776 -2.11593,-3.78088 -4.37498,-7.74428 -4.53912,-12.18752 -0.12132,-0.92077 0.25273,-1.83364 0.10218,-2.73386 -0.19114,-0.64033 -0.88701,-0.75083 -1.44598,-0.74225 -0.47185,-0.27004 -1.01096,-0.48861 -1.52385,-0.18467 z"/>
<path fill="#6C5353" d="m 201.45438,286.15672 c -1.88845,0.75049 -3.46822,2.297 -4.03632,4.27415 -0.61841,2.3168 -0.50065,4.75737 -0.4181,7.13224 0.11211,0.83282 -0.11914,2.10454 0.92588,2.36201 1.06869,0.0506 2.1752,0.0904 3.23777,-0.0178 1.07693,-0.2686 0.78407,-1.6213 0.98178,-2.46141 0.35396,-3.38182 0.785,-6.77243 0.79788,-10.17591 0.006,-0.79121 -0.7017,-1.45557 -1.48889,-1.11327 z"/>
<path fill="#C83737" d="m 151.14314,304.01485 c -0.69897,0.13559 -1.36251,0.42127 -2.08206,0.44493 -1.09835,0.36469 -0.96754,1.75312 -1.31892,2.64198 -0.16512,0.91972 -0.62072,1.81627 -0.57512,2.75853 0.16184,0.91478 1.47199,1.07295 1.93529,0.30674 1.15221,-1.50782 2.18244,-3.12371 3.06803,-4.80001 0.22843,-0.65399 -0.32589,-1.41 -1.02722,-1.35217 z"/>
<path fill="#AC9393" d="m 140.84212,295.37881 c -1.01445,1.01231 -1.70391,2.31862 -2.55038,3.47582 -0.41289,0.74821 -1.43327,1.62055 -0.78733,2.52289 0.63197,0.79941 1.64092,0.20474 2.30236,-0.21513 1.37318,-0.85963 2.86074,-1.59647 4.0771,-2.67211 0.58807,-0.74471 -0.14058,-1.78703 -1.0181,-1.71889 -0.6769,-0.35097 -0.59184,-1.46288 -1.50418,-1.50229 -0.17316,0.0366 -0.34631,0.0731 -0.51947,0.10971 z"/>
<path fill="#C83737" d="m 167.76396,197.07119 c -7.74723,1.43947 -15.83604,3.74077 -22.33151,8.3115 -3.46149,4.05044 2.1193,8.71481 4.1457,12.05688 3.51221,4.87144 10.44653,10.93238 16.56103,6.55439 6.1809,-5.28003 7.9662,-14.30664 8.11385,-22.04843 -0.68809,-2.9582 -3.334,-5.30374 -6.48907,-4.87434 z m -1.25962,6.48069 c -0.3683,4.88344 0.98421,14.02679 -5.93296,14.70008 -4.49888,-1.14324 -7.43181,-6.17153 -8.72524,-10.09877 4.70335,-1.9134 9.90959,-3.45856 14.6582,-4.60131 z"/>
<path fill="#FFD42A" d="m 109.16803,234.62874 c -5.4925,-0.45251 -4.88309,6.41862 -5.41752,10.05992 -2.08404,25.02614 -1.98382,50.90377 6.95415,74.73108 4.5262,11.37249 7.58286,23.89836 15.39793,33.56166 2.08754,2.14045 5.14604,5.40222 8.13228,2.6566 11.03833,-8.73656 19.16736,-21.15036 23.85019,-34.37562 1.11427,-4.77241 4.10299,-10.07021 2.52485,-14.94734 -3.10629,-1.09879 -6.47696,2.40326 -8.54936,4.48573 -2.36135,3.36954 -6.5639,5.64013 -10.38184,7.08706 -3.33143,-0.002 -0.0533,-4.39619 0.46063,-5.89611 0.58887,-2.20403 4.29265,-7.20152 0.62981,-8.21938 -4.68409,0.80894 -10.35179,2.03562 -14.60627,0.52429 3.64358,-6.43727 11.34768,-10.0424 13.16192,-17.7318 2.52055,-7.80346 6.52475,-15.72316 6.23326,-24.0619 -3.4854,-11.39904 -14.36352,-18.84177 -24.56098,-23.91777 -4.36,-1.95541 -8.97784,-3.88886 -13.82905,-3.95642 z"/>
<path fill="#241F1C" d="m 165.71373,203.10298 c -4.24993,2.08656 -10.96808,1.68579 -13.60293,6.13898 0.96162,4.13424 4.65043,8.3992 8.81066,9.4388 6.28461,-1.24674 5.56697,-9.73141 6.08037,-14.54931 0.10321,-0.74041 -0.68988,-1.1777 -1.2881,-1.02847 z"/>
<path fill="#454A68" d="m 311.59888,469.80477 c -3.74136,0.69201 -0.3336,4.94138 1.16715,6.25254 18.11688,20.1022 36.5701,40.0308 56.61199,58.23602 23.2918,18.93604 49.25677,34.26989 72.78786,52.91269 30.5019,21.44957 61.14532,42.74916 92.479,62.96925 10.91305,6.83719 23.38209,13.61255 36.7393,11.1423 11.46842,-1.8097 24.19385,-1.31648 34.27478,-7.83057 2.8272,-2.94465 7.15992,-4.60354 10.71349,-1.75878 7.00707,2.01867 16.7837,0.57419 20.78714,-6.13062 1.6334,-5.60274 -5.26295,-8.84299 -8.1708,-12.50243 -27.69938,-25.22352 -53.63357,-52.56069 -76.16032,-82.5204 2.13346,-1.1807 7.3513,-0.4586 6.33163,-4.35844 -6.68135,-11.77854 -17.28686,-20.81876 -26.34057,-30.75135 -10.04235,-9.58066 -19.07015,-20.46485 -30.33746,-28.63687 -7.76749,-2.73625 -16.40682,-0.68434 -24.47671,-1.02362 -24.98426,1.05748 -50.05327,2.99114 -74.84595,-0.94894 -28.19347,-4.0782 -57.36055,-2.71802 -84.27079,-13.25682 -2.392,-0.68554 -4.77544,-1.70564 -7.28974,-1.79396 z"/>
<path fill="#454A68" d="m 413.22637,363.45872 c -25.9446,2.7782 -51.12342,10.25375 -76.5506,15.85417 -25.25746,6.2966 -50.96036,10.42241 -76.99888,10.69255 -11.65221,0.83542 -23.72639,0.1394 -35.08415,2.55527 1.81611,4.42198 6.79807,7.69872 10.00505,11.53275 20.91339,20.03946 42.29769,39.84036 65.95259,56.63264 24.75787,16.07412 55.27518,18.03079 83.82894,20.85554 21.42916,1.70146 42.79982,4.48834 64.34765,3.33024 22.23992,-0.21834 44.63548,-2.13735 66.20226,-7.69343 6.48807,-2.81191 7.61525,-12.67026 1.40535,-16.53422 -5.60854,-5.11724 -13.19143,-7.17333 -20.66654,-6.1457 -8.12306,0.23542 -16.24442,0.52592 -24.36668,0.78727 -0.21344,-4.48525 0.79933,-11.17956 -5.95641,-9.67833 -3.63544,0.20594 -7.43965,-2.40577 -6.37182,-6.41034 1.4009,-3.94373 -1.65546,-7.56461 -5.7018,-7.50749 -2.88748,-0.2201 -7.60212,-2.35457 -5.06195,-5.78556 0.99307,-3.66604 5.02003,-8.42424 2.15577,-11.99322 -5.83949,-3.86124 -13.85319,-1.7548 -19.8642,-3.00501 1.69244,-6.44889 4.26403,-16.40301 -3.30315,-20.21092 -3.05378,-1.01329 -8.14931,-3.3427 -5.77886,-7.38019 3.29052,-4.87275 3.56299,-11.39251 -0.50251,-15.93457 -1.81668,-2.39056 -4.54401,-4.32758 -7.69006,-3.96145 z"/>
<path fill="#454A68" d="m 379.43094,281.01872 c -3.85062,0.78539 0.40021,4.9348 1.57788,6.54435 5.57846,5.22834 8.99896,12.12074 11.0619,19.39518 3.58502,4.85006 11.3288,7.61098 11.44649,14.64399 0.26257,6.71869 2.19485,13.30683 6.8817,18.27205 5.06886,7.83286 3.66531,18.27763 10.53427,25.20586 3.61034,4.05849 6.59513,9.53631 4.14068,14.97143 -0.35555,8.26392 10.97158,11.87799 9.08369,20.56771 -1.09426,3.9044 1.59875,7.62527 5.66161,7.71854 7.62606,0.61845 14.45972,4.44874 21.83068,5.85759 9.46459,-1.22728 16.47228,-8.4825 24.90771,-12.08368 5.685,-0.49059 13.20254,0.29127 16.03004,-6.07199 3.85957,-5.32527 13.5952,-5.48607 14.52253,-12.89941 -1.41759,-9.5658 -12.18817,-13.06458 -18.72463,-18.53235 -29.5433,-20.49991 -57.81052,-42.75007 -87.2299,-63.43861 -9.97902,-7.0647 -19.46561,-15.44041 -30.84359,-20.13223 -0.29189,-0.0405 -0.58798,-0.023 -0.88106,-0.0184 z"/>
<path fill="#484537" d="m 351.14301,263.01214 c -8.4918,1.89257 -11.87262,11.37125 -17.88096,16.76371 -16.03787,15.78214 -35.58244,27.70434 -55.90583,37.02656 -20.29501,9.26842 -42.46945,12.86721 -63.35805,20.33488 -4.64979,1.36256 -9.54521,5.75796 -7.22441,11.00662 1.88788,7.18184 9.57208,11.98382 16.85051,9.86874 41.02334,-5.45548 79.14605,-22.7973 116.21626,-40.30158 13.59463,-7.77547 29.27176,-17.61123 32.48995,-34.21498 1.04434,-4.6659 -1.05909,-9.38413 -5.47775,-11.41517 -5.00155,-3.04652 -9.63195,-8.43113 -15.70972,-9.06878 z"/>
<path fill="#454A68" d="m 379.49124,280.56981 c -4.04374,1.09835 -0.32847,5.75502 1.39139,7.3415 5.01919,5.73248 8.42363,12.75707 11.31204,19.66335 4.19507,4.70901 10.92821,8.29978 10.94466,15.48566 0.69412,6.72245 3.24576,13.29937 7.58789,18.43875 3.69061,8.93307 4.71577,19.25397 11.70511,26.52076 3.34914,4.28799 2.78788,9.75357 2.62143,14.74697 2.46505,6.68892 9.99118,11.54297 8.65488,19.39184 -0.17255,6.05823 6.71762,7.07736 11.27631,7.8023 7.63618,1.28522 15.85391,7.10353 23.43201,2.72527 8.64148,-4.04744 16.47596,-10.85709 26.36332,-10.90445 6.38475,-0.66344 9.03473,-7.7412 14.70007,-10.07531 4.29458,-2.12414 10.14232,-6.62154 6.98487,-12.02338 -5.27703,-9.08713 -15.81232,-13.2596 -23.68834,-19.7282 -35.60935,-25.37378 -70.06507,-52.41213 -106.57212,-76.504 -2.1199,-1.10865 -4.23413,-2.77828 -6.71352,-2.88106 z"/>
<path fill="#AC9D93" d="m 381.56325,291.33524 c -7.93826,1.95476 -12.62227,9.76889 -19.09569,14.25872 -24.32302,19.71837 -54.13293,30.69669 -82.63446,42.77502 -11.11104,5.17021 -22.93302,8.01154 -35.03218,9.70872 -10.87053,2.19438 -21.98101,3.06654 -32.82284,5.06109 -3.91896,2.67903 -0.0891,8.06539 0.44724,11.53594 1.97609,6.60768 7.08819,13.69941 14.87427,12.81734 28.49652,-0.86337 57.16342,-0.98579 85.43159,-5.05601 17.02811,-2.94913 33.10008,-9.27776 50.20238,-11.74958 16.93251,-3.56616 33.41076,-8.92528 49.75512,-14.54262 3.42345,-9.17821 -3.19095,-19.33977 -11.32488,-23.77539 -0.24786,-5.637 0.48243,-11.49125 -0.35846,-16.99654 -3.88229,-4.36732 -9.63819,-5.61133 -14.78718,-7.66494 1.93147,-4.97456 2.88245,-11.20295 -1.5561,-15.20091 -0.8321,-0.77307 -1.95703,-1.22803 -3.09881,-1.17084 z"/>
<path fill="#AC9D93" d="m 286.75482,467.82488 c -5.07246,1.13528 -5.79089,7.71956 -7.98152,11.61802 -3.05382,6.50574 -3.15022,13.92665 -5.08205,20.62968 -9.07045,6.00603 -20.72415,5.75004 -30.90264,9.10547 -7.79851,2.15047 -16.47525,6.16769 -19.65984,14.04681 1.31952,3.34755 6.41984,0.57682 9.07381,0.9853 32.40123,-3.884 65.36579,-2.02472 97.81494,0.41167 3.86381,-1.03448 0.29753,-5.36756 -1.49915,-6.66494 -10.47214,-9.83851 -25.05386,-14.06594 -39.1572,-14.39187 -5.34408,-0.2185 -2.90101,-7.09505 -2.47402,-10.23947 0.98563,-7.79201 5.37433,-15.29303 4.75541,-23.2042 -0.74093,-1.81133 -3.17012,-2.18924 -4.88774,-2.29647 z"/>
<path fill="#6C5353" d="m 266.38979,466.82656 c -9.04143,-0.66311 -14.96761,7.56242 -17.76035,15.11548 -2.45087,4.44901 -1.66083,10.41857 -4.56111,14.44715 -11.17625,1.43443 -23.02822,0.62022 -33.21201,6.36334 -9.82156,4.86459 -20.26338,9.88821 -27.69547,18.11053 -1.48206,3.72865 3.75619,3.17478 5.80398,2.19932 11.23985,-4.03722 23.05971,-5.42404 34.80045,-7.48906 10.66837,-2.14439 19.40612,-9.54692 30.45374,-10.34835 4.94515,-1.46632 12.42805,-1.94427 14.52754,-7.50246 0.18698,-4.44633 -5.73415,0.15989 -6.94468,-2.57117 0.12965,-9.59948 5.99236,-17.91596 8.22273,-26.95795 -0.18331,-1.71889 -2.47795,-1.30097 -3.63482,-1.36683 z"/>
<path fill="#454A68" d="m 382.10764,290.94495 c -9.46048,2.31962 -15.19155,11.45781 -23.03339,16.64078 -25.6545,18.81163 -55.53428,30.3814 -84.77999,42.33539 -19.97284,7.87839 -41.73985,8.54897 -62.4686,13.1825 -4.32482,2.02861 -0.52479,7.61132 0.0567,10.85363 1.66675,7.30324 7.48422,14.15889 15.44072,14.16296 35.79149,-1.69796 72.31898,-0.32736 107.14672,-10.31317 22.40568,-5.77531 45.33115,-9.60925 67.19256,-17.44288 3.594,-2.42604 11.89267,-1.15079 12.13691,-6.41124 1.17697,-9.2046 -4.83928,-17.20757 -12.00495,-22.22934 -0.80479,-5.76031 1.57545,-12.53511 -1.54773,-17.74695 -3.58531,-3.26443 -8.46924,-4.53204 -12.88266,-6.25289 0.44589,-5.31352 2.48044,-15.70748 -5.25625,-16.77879 z"/>
<path fill="#AC9D93" d="m 236.52399,96.070167 c -8.4063,0.813538 -17.60506,-0.148943 -25.39012,3.517566 -1.71681,3.545977 2.45283,7.235187 3.70182,10.478997 4.18649,6.12227 3.77839,14.2091 -0.47404,20.18077 -5.62974,11.49677 -14.10575,22.10181 -16.74696,34.83395 0.13309,4.41777 5.63204,2.50545 8.01503,1.28642 13.80607,-6.27462 28.27258,-11.93383 40.33977,-21.29969 8.52055,-8.01786 17.70855,-15.91752 23.75361,-26.04339 3.10573,-6.28633 -4.00025,-11.4186 -7.80885,-15.31941 -5.02793,-3.63467 -9.97555,-9.597274 -16.81079,-7.943118 -2.85982,0.102635 -5.71965,0.20527 -8.57947,0.307905 z"/>
<path fill="#B3B3B3" d="m 85.154783,129.27096 c -8.603569,4.25445 -14.328455,12.79883 -22.661494,17.64142 -2.529737,1.01214 -3.037616,5.3056 0.346731,5.2328 10.465767,1.07311 21.13026,2.40455 31.621236,1.76213 3.110086,-2.29305 -1.201602,-6.56068 -1.547729,-9.39022 -2.45759,-4.93858 -3.694604,-10.91247 -7.120557,-15.18416 -0.205074,-0.0678 -0.424266,-0.0839 -0.638187,-0.062 z"/>
<path fill="#6C5353" d="m 79.255324,102.86409 c -14.7766,2.20513 -23.639511,16.35151 -27.375032,29.65978 -1.180714,4.48169 -2.272819,9.28113 -1.911211,13.84748 11.621369,1.56855 21.24593,-7.35221 29.043329,-14.79838 4.180092,-3.12695 7.933235,-6.74962 5.34861,-12.30618 -1.472065,-5.1386 -0.215567,-11.66182 -3.584767,-16.06267 -0.446527,-0.2911 -0.996818,-0.37753 -1.520929,-0.34003 z"/>
<path fill="#484537" d="m 351.00901,262.80443 c -8.27505,1.86089 -12.1831,10.73711 -17.89435,16.1875 -19.5436,18.85014 -43.74929,32.5043 -68.97172,42.22471 -17.81605,6.38046 -36.63639,9.95931 -54.09282,17.36285 -6.64764,3.37112 -4.20141,12.49852 0.52429,16.4689 4.43378,5.17509 11.62871,4.4634 17.52154,2.83937 38.55096,-6.06917 74.64481,-22.00103 109.56474,-38.78721 14.50965,-7.81083 31.22828,-17.81857 35.04333,-35.18235 2.29061,-8.3083 -6.53931,-13.23533 -12.26045,-17.07224 -2.88416,-1.74323 -5.91172,-4.02565 -9.43456,-4.04153 z"/>
<path fill="#454A68" d="m 379.84299,280.16613 c -4.62208,0.69407 -1.31812,6.21635 0.61642,8.11385 3.02327,3.51089 6.93356,6.5176 7.58286,11.39189 1.78666,6.22226 6.35556,10.77815 11.27129,14.65317 5.05421,7.89068 2.87164,19.21151 10.37514,25.84573 4.54994,7.50587 4.16583,17.05447 9.3852,24.42697 4.36019,4.91753 5.95883,11.3508 5.81235,17.79721 1.96058,7.17449 9.00781,12.50485 8.48571,20.51075 1.36824,7.50674 10.31629,7.14717 15.95277,9.01871 6.56714,1.71955 14.0646,5.1654 20.36023,0.61775 8.48536,-4.81979 17.36607,-9.03906 26.94622,-11.08369 6.24235,-3.01615 11.19282,-8.16229 17.00827,-11.91281 4.62496,-2.87802 5.09836,-9.34224 1.14739,-13.00829 -9.57365,-10.38317 -22.52363,-16.81916 -33.44588,-25.63073 -32.8239,-23.3849 -64.32258,-48.78647 -98.77101,-69.80082 -0.85868,-0.39695 -1.72697,-1.0585 -2.72696,-0.93969 z"/>
<path fill="#FF6600" d="m 203.37812,102.4628 c -9.26172,0.728 -17.63472,5.39299 -25.4308,10.11203 -9.8121,5.88715 -18.51037,13.40504 -26.48737,21.56793 -9.74275,9.592 -18.37647,20.41615 -25.00436,32.39451 -1.07619,2.45921 -3.11161,5.46748 -1.61792,8.14944 2.1845,2.36939 5.84297,1.45633 8.70718,1.78335 14.68382,0.63528 29.26762,-2.11619 43.83039,-2.92395 6.04807,0.14005 13.00468,-1.12455 16.61652,-6.51492 5.74905,-8.47268 9.07174,-18.30254 14.4128,-27.02071 4.03263,-7.1666 8.44675,-14.88168 8.12717,-23.37672 -0.31092,-6.55026 -4.87575,-13.57376 -11.86969,-14.12062 -0.42663,-0.0407 -0.8554,-0.0578 -1.28392,-0.0503 z"/>
<path fill="#241F1C" d="M 165.90637,36.604528 C 134.1337,38.333294 105.38728,59.3081 92.04795,87.892533 c -11.701168,21.144117 -1.939312,46.918387 10.87868,65.228827 4.60507,6.22254 9.30659,14.35534 17.03824,16.44444 14.99646,-21.23714 30.95556,-42.75467 53.43418,-56.7032 21.17733,-14.326194 46.71729,-19.82169 71.8757,-21.250971 7.47387,-0.294071 1.04403,-8.415274 -0.93807,-11.36338 -15.5444,-19.865042 -37.304,-36.134917 -62.03153,-42.247729 -5.37625,-1.166914 -10.90267,-1.633464 -16.39878,-1.395992 z m -23.79748,23.337925 c 19.16755,-0.67731 28.96072,28.187385 13.0429,38.872854 -14.51957,7.097603 -36.33082,-6.227407 -31.23094,-23.214744 1.74638,-8.556116 8.73856,-16.77141 18.18804,-15.65811 z"/>
<path fill="#241F1C" d="m 257.42054,428.00595 c -0.79617,0.14445 -1.64156,0.4933 -2.15179,1.1317 0.10355,0.68805 0.97021,0.91615 1.40387,1.40013 0.63203,0.40247 1.16146,1.10221 1.91039,1.25374 0.55645,-0.21578 0.95557,-0.90597 0.93466,-1.4958 -0.0496,-0.27397 -0.33255,-0.4492 -0.60028,-0.42357 -0.14414,-0.77557 -0.53921,-1.88507 -1.49685,-1.8662 z"/>
<path fill="#FF6600" d="m 258.13159,431.65486 c -7.5867,7.88997 -16.19678,15.0539 -22.33591,24.18597 -1.12356,3.08368 3.43128,3.40834 5.34817,3.57041 17.62014,2.3909 35.17457,5.52669 52.89597,7.0302 2.20367,0.44803 2.39119,-2.13193 0.91201,-3.15294 -10.78635,-11.74959 -23.15497,-21.97852 -35.77084,-31.69997 -0.33484,0.11674 -0.77422,-0.42767 -1.0494,0.0663 z"/>
<g id="redbullfinch-cleanup">
<path fill="#241F1C" d="M218 254C235 234 258 224 286 225C305 226 318 242 322 261C314 284 291 306 254 323C239 310 225 280 218 254z"/>
<path fill="#6C5353" d="M229 256C244 241 265 233 287 234C300 236 310 248 314 262C306 282 285 300 256 314C244 301 234 278 229 256z"/>
<path fill="#C83737" d="M232 258C240 248 250 242 263 238C264 258 270 281 278 301C270 307 262 312 255 315C244 301 236 279 232 258z"/>
<path fill="#AC9D93" d="M276 237C289 238 301 244 309 254C307 268 300 281 289 292C284 273 279 254 276 237z"/>
<path fill="#F9F8F6" d="M266 461C270 464 271 469 270 475C269 484 267 492 266 497C265 501 260 501 258 496C259 487 262 476 263 467C263 464 264 462 266 461z"/>
</g></g>
</svg>
